PathFileType	4	(X/Y/Z)	C:\Users\israe\Desktop\Doctoral Research\Projects\PhaseIA\OPENSIM_october\ExperimentalData\subject1\100\P1S100W01.trc
DataRate	CameraRate	NumFrames	NumMarkers	Units	OrigDataRate	OrigDataStartFrame	OrigNumFrames
100.000000	100.000000	3	136	mm	100.000000	30	246
Frame#	Time	PELVIS_cgm24O			PELVIS_cgm24A			PELVIS_cgm24L			PELVIS_cgm24P			LFEMUR_cgm24O			LFEMUR_cgm24A			LFEMUR_cgm24L			LFEMUR_cgm24P			LTIBIA_cgm24O			LTIBIA_cgm24A			LTIBIA_cgm24L			LTIBIA_cgm24P			LFOOT_cgm24O			LFOOT_cgm24A			LFOOT_cgm24L			LFOOT_cgm24P			LTOES_cgm24O			LTOES_cgm24A			LTOES_cgm24L			LTOES_cgm24P			RFEMUR_cgm24O			RFEMUR_cgm24A			RFEMUR_cgm24L			RFEMUR_cgm24P			RTIBIA_cgm24O			RTIBIA_cgm24A			RTIBIA_cgm24L			RTIBIA_cgm24P			RFOOT_cgm24O			RFOOT_cgm24A			RFOOT_cgm24L			RFOOT_cgm24P			RTOES_cgm24O			RTOES_cgm24A			RTOES_cgm24L			RTOES_cgm24P			THORAX_cgm24O			THORAX_cgm24A			THORAX_cgm24L			THORAX_cgm24P			LUPPERARM_cgm24O			LUPPERARM_cgm24A			LUPPERARM_cgm24L			LUPPERARM_cgm24P			LFOREARM_cgm24O			LFOREARM_cgm24A			LFOREARM_cgm24L			LFOREARM_cgm24P			LHAND_cgm24O			LHAND_cgm24A			LHAND_cgm24L			LHAND_cgm24P			RUPPERARM_cgm24O			RUPPERARM_cgm24A			RUPPERARM_cgm24L			RUPPERARM_cgm24P			RFOREARM_cgm24O			RFOREARM_cgm24A			RFOREARM_cgm24L			RFOREARM_cgm24P			RHAND_cgm24O			RHAND_cgm24A			RHAND_cgm24L			RHAND_cgm24P			HEAD_cgm24O			HEAD_cgm24A			HEAD_cgm24L			HEAD_cgm24P			LFHD			RFHD			LBHD			RBHD			C7			T10			CLAV			STRN			RBAK			LSHO			LELB			LFRM			LWRA			LWRB			LFIN			RSHO			RELB			RFRM			RWRA			RWRB			RFIN			LASI			RASI			LPSI			RPSI			LTHI			LTHAP			LTHAD			LKNE			LTIB			LTIAP			LTIAD			LANK			LHEE			LTOE			LFMH			LVMH			RTHI			RTHAP			RTHAD			RKNE			RTIB			RTIAP			RTIAD			RANK			RHEE			RTOE			RFMH			RVMH			RPel			LPel			LMEL			RMEL			LHJC_cgm24			RHJC_cgm24			LKJC_cgm24			RKJC_cgm24			LAJC_cgm24			RAJC_cgm24			LFJC_cgm24			RFJC_cgm24			LSJC_cgm24			RSJC_cgm24			LEJC_cgm24			REJC_cgm24			LHO_cgm24			RHO_cgm24			CentreOfMass_cgm24			
		X1	Y1	Z1	X2	Y2	Z2	X3	Y3	Z3	X4	Y4	Z4	X5	Y5	Z5	X6	Y6	Z6	X7	Y7	Z7	X8	Y8	Z8	X9	Y9	Z9	X10	Y10	Z10	X11	Y11	Z11	X12	Y12	Z12	X13	Y13	Z13	X14	Y14	Z14	X15	Y15	Z15	X16	Y16	Z16	X17	Y17	Z17	X18	Y18	Z18	X19	Y19	Z19	X20	Y20	Z20	X21	Y21	Z21	X22	Y22	Z22	X23	Y23	Z23	X24	Y24	Z24	X25	Y25	Z25	X26	Y26	Z26	X27	Y27	Z27	X28	Y28	Z28	X29	Y29	Z29	X30	Y30	Z30	X31	Y31	Z31	X32	Y32	Z32	X33	Y33	Z33	X34	Y34	Z34	X35	Y35	Z35	X36	Y36	Z36	X37	Y37	Z37	X38	Y38	Z38	X39	Y39	Z39	X40	Y40	Z40	X41	Y41	Z41	X42	Y42	Z42	X43	Y43	Z43	X44	Y44	Z44	X45	Y45	Z45	X46	Y46	Z46	X47	Y47	Z47	X48	Y48	Z48	X49	Y49	Z49	X50	Y50	Z50	X51	Y51	Z51	X52	Y52	Z52	X53	Y53	Z53	X54	Y54	Z54	X55	Y55	Z55	X56	Y56	Z56	X57	Y57	Z57	X58	Y58	Z58	X59	Y59	Z59	X60	Y60	Z60	X61	Y61	Z61	X62	Y62	Z62	X63	Y63	Z63	X64	Y64	Z64	X65	Y65	Z65	X66	Y66	Z66	X67	Y67	Z67	X68	Y68	Z68	X69	Y69	Z69	X70	Y70	Z70	X71	Y71	Z71	X72	Y72	Z72	X73	Y73	Z73	X74	Y74	Z74	X75	Y75	Z75	X76	Y76	Z76	X77	Y77	Z77	X78	Y78	Z78	X79	Y79	Z79	X80	Y80	Z80	X81	Y81	Z81	X82	Y82	Z82	X83	Y83	Z83	X84	Y84	Z84	X85	Y85	Z85	X86	Y86	Z86	X87	Y87	Z87	X88	Y88	Z88	X89	Y89	Z89	X90	Y90	Z90	X91	Y91	Z91	X92	Y92	Z92	X93	Y93	Z93	X94	Y94	Z94	X95	Y95	Z95	X96	Y96	Z96	X97	Y97	Z97	X98	Y98	Z98	X99	Y99	Z99	X100	Y100	Z100	X101	Y101	Z101	X102	Y102	Z102	X103	Y103	Z103	X104	Y104	Z104	X105	Y105	Z105	X106	Y106	Z106	X107	Y107	Z107	X108	Y108	Z108	X109	Y109	Z109	X110	Y110	Z110	X111	Y111	Z111	X112	Y112	Z112	X113	Y113	Z113	X114	Y114	Z114	X115	Y115	Z115	X116	Y116	Z116	X117	Y117	Z117	X118	Y118	Z118	X119	Y119	Z119	X120	Y120	Z120	X121	Y121	Z121	X122	Y122	Z122	X123	Y123	Z123	X124	Y124	Z124	X125	Y125	Z125	X126	Y126	Z126	X127	Y127	Z127	X128	Y128	Z128	X129	Y129	Z129	X130	Y130	Z130	X131	Y131	Z131	X132	Y132	Z132	X133	Y133	Z133	X134	Y134	Z134	X135	Y135	Z135	X136	Y136	Z136	

31	0.3	219.218994140625	887.2449951171876	-1043.599975585938	210.1493225097656	873.885009765625	-872.6981201171875	390.1235046386719	899.8441162109376	-1033.545288085938	205.8932342529297	1057.922973632813	-1030.964721679688	275.4869995117188	485.3540039062501	-946.7479858398438	216.3654479980469	580.1567993164063	-542.2091064453125	689.9630126953125	470.1573181152344	-882.6128540039063	304.6228332519531	893.9077148437501	-1038.233642578125	240.7760009765625	93.00509643554693	-960.2230224609375	282.9461669921875	75.82904815673831	-568.751220703125	631.0840454101563	59.96922683715827	-1003.71728515625	275.4862060546875	485.3532409667969	-946.74755859375	236.4869995117188	70.58560180664068	-1038.589965820313	256.0143127441406	294.3688659667969	-1043.003784179688	460.1590270996094	50.91085052490241	-1046.55712890625	228.1650390625	66.88390350341804	-1263.082275390625	242.5760040283203	73.4608993530274	-896.5670166015625	242.5760040283203	73.4608993530274	-896.5670166015625	242.5760040283203	73.4608993530274	-896.5670166015625	242.5760040283203	73.4608993530274	-896.5670166015625	109.4410018920898	468.4979858398438	-984.2349853515625	123.8410568237305	532.4765625	-571.563232421875	526.3308715820313	442.1950988769532	-994.704345703125	133.8149261474609	880.5823974609376	-1048.973022460938	134.8269958496094	242.9440002441407	-1314.02001953125	60.37287902832031	-84.38406372070305	-1095.87451171875	527.3657836914063	195.4453125000001	-1251.316528320313	109.441276550293	468.4984130859376	-984.2392578125	144.781005859375	289.4389953613282	-1379.349975585938	129.4320831298828	415.9315490722657	-1193.0947265625	367.8589477539063	272.7293701171876	-1349.618408203125	175.2372894287109	475.5770263671876	-1503.253173828125	126.0180053710938	174.4669952392579	-1296.68994140625	126.0180053710938	174.4669952392579	-1296.68994140625	126.0180053710938	174.4669952392579	-1296.68994140625	126.0180053710938	174.4669952392579	-1296.68994140625	224.8970031738281	1415.630004882813	-1006.539916992187	210.7163848876953	1467.245727539063	-537.6071777343749	-246.8471374511719	1418.477783203125	-1021.118957519531	220.4732666015625	946.4915161132814	-955.0353393554686	448.3810119628906	1113.81005859375	-1100	428.9910583496094	1149.66748046875	-1369.423583984375	177.6508178710938	1087.328979492188	-1084.040405273438	424.2980651855469	1382.629272460938	-1062.48974609375	478.3739929199219	871.3129882812501	-993.572998046875	474.5036010742188	763.5236816406251	-1238.077880859375	212.8618774414063	845.3420410156251	-977.9208374023438	448.299072265625	1114.465576171875	-1100.2900390625	469.7120056152344	804.7420043945314	-969.4030151367188	575.8145751953125	827.320068359375	-869.1865844726563	570.8634033203125	756.6334838867189	-1065.656982421875	487.642333984375	942.5340576171876	-1019.430053710937	-16.31970024108887	1116.5400390625	-1110.089965820313	1.562290191650391	1141.521362304688	-1375.71923828125	-279.5977172851563	1161.315795898438	-1123.602661132813	26.89710807800293	1378.978271484375	-1082.499389648438	-62.23049926757813	890.4210205078126	-964.8350219726563	-75.11807250976563	745.1833496093751	-1194.995483398438	-330.489501953125	936.0438842773439	-978.6034545898436	-16.35100936889648	1116.382202148438	-1109.991821289063	-75.27030181884766	822.5170288085938	-927.77001953125	-187.1739044189453	895.7261962890625	-833.016357421875	41.33059692382813	859.6358642578125	-818.743896484375	-48.02922058105469	964.3721923828126	-1005.199462890625	217.4190063476563	1673.079956054688	-1070.969970703125	217.1225280761719	1686.65185546875	-1019.195495605469	270.8005981445313	1676.926391601563	-1071.672607421875	213.5201873779297	1724.712158203125	-1084.526977539063	287.8356018066406	1692.5029296875	-1024.644775390625	146.0528717041016	1684.457275390625	-1020.767395019531	308.3785705566406	1664.770385742188	-1121.063598632813	127.4073867797852	1650.59716796875	-1117.4130859375	226.0442352294922	1501.789184570313	-1131.938598632813	228.0416870117188	1142.776245117188	-1161.603637695313	224.761962890625	1416.119750976563	-1002.073425292969	217.8417510986328	1253.050170898438	-915.0936889648436	109.7822952270508	1347.121826171875	-1191.612426757813	425.4096984863281	1435.18896484375	-1067.44189453125	482.4518737792969	1114.84765625	-1085.614135742188	485.4626159667969	990.6467895507814	-1003.329162597656	465.6507568359375	874.4223632812501	-971.895751953125	497.640869140625	871.4788818359376	-1010.007080078125	480.1288757324219	806.9590454101564	-959.5635375976563	25.34477043151855	1427.331787109375	-1088.687133789063	-51.13444137573242	1121.038330078125	-1098.402465820313	-71.63442230224609	1004.980407714844	-1007.216125488281	-43.70383834838867	899.7466430664064	-942.4264526367188	-86.78416442871094	885.6442260742189	-982.346435546875	-85.17069244384766	828.9938354492188	-919.3868408203125	329.110107421875	965.6762084960939	-974.4042968749999	92.38624572753906	964.5817260742189	-989.3301391601561	261.7001037597656	977.8854370117189	-1159.488037109375	183.7300567626953	977.1171264648439	-1163.594482421875	365.3464050292969	659.4146118164064	-977.8406982421875	306.6975402832031	765.2295532226563	-906.5241088867188	291.7405395507813	665.126953125	-892.2388916015625	327.3095092773438	484.1123046875001	-944.0514526367188	319.0114440917969	299.6489868164063	-946.8114013671875	266.6351623535156	354.9732055664063	-894.3923950195313	261.0274353027344	251.2716674804688	-903.8862915039063	279.3973083496094	90.05976104736334	-969.8095703125	236.4032745361328	74.43133544921881	-1039.423583984375	247.5970001220703	80.19455718994146	-868.9925537109375	224.7964935302734	57.52131652832036	-818.2574462890625	312.9646606445313	43.52616119384771	-855.7888793945313	30.6728343963623	700.3586425781251	-1019.664306640625	92.94551086425781	773.3490600585939	-942.3665161132813	93.48580932617188	679.6597290039063	-924.5559692382813	58.29232025146484	480.8398132324219	-991.8697509765625	65.35337066650391	339.2512207031251	-1154.5869140625	102.6394577026367	349.1474304199219	-1055.862060546875	113.3468170166016	278.5861816406251	-1174.448486328125	95.2862548828125	248.7511596679688	-1318.477294921875	145.4851684570313	291.2293395996094	-1377.082275390625	123.8548812866211	147.8219604492188	-1277.348388671875	158.0490417480469	99.73948669433601	-1275.198852539063	71.56215667724609	120.6755599975587	-1313.947631835938	46.72631454467773	983.2474975585939	-1095.546020507813	389.442138671875	988.7053833007814	-1060.833129882813	416.6427917480469	1104.703247070313	-1092.687622070313	12.05199909210205	1099.67919921875	-1108.683715820313	304.6229858398438	893.9069824218751	-1038.22998046875	133.8150024414063	880.5819702148439	-1048.969970703125	275.4869995117188	485.3540039062501	-946.7479858398438	109.4410018920898	468.4979858398438	-984.2349853515625	240.7760009765625	93.00509643554693	-960.2230224609375	134.8269958496094	242.9440002441407	-1314.02001953125	242.5760040283203	73.4608993530274	-896.5670166015625	126.0180053710938	174.4669952392579	-1296.68994140625	423.1610107421875	1395.31005859375	-1060.719970703125	28.31220054626465	1387.569946289063	-1081.599975585938	448.3810119628906	1113.81005859375	-1100	-16.31970024108887	1116.5400390625	-1110.089965820313	469.7120056152344	804.7420043945314	-969.4030151367188	-75.27030181884766	822.5170288085938	-927.77001953125	214.5980072021484	997.3489990234376	-1052.130004882813	
32	0.31	219.8679962158203	889.5109863281251	-1031.239990234375	211.3533020019531	876.2616577148438	-860.3009643554688	390.8518981933594	901.4890747070314	-1021.794616699219	207.2114105224609	1060.2421875	-1018.63720703125	275.75	485.4509887695313	-943.5800170898438	217.6235046386719	571.475830078125	-536.9405517578125	690.33642578125	468.2453002929688	-880.6776733398438	305.3143310546875	895.8634033203126	-1026.177001953125	240.6670074462891	93.24810028076178	-960.0020141601563	284.9248962402344	72.91375732421878	-568.9122314453125	630.71044921875	60.27810668945319	-1005.855712890625	275.7501220703125	485.4508361816407	-943.5800170898438	236.39599609375	71.15119934082037	-1038.4599609375	256.1596984863281	294.9291076660157	-1042.008666992188	460.0353698730469	51.26723861694342	-1046.814697265625	227.7606506347656	68.35378265380866	-1262.953491210938	242.5339965820313	73.44819641113287	-896.426025390625	242.5339965820313	73.44819641113287	-896.426025390625	242.5339965820313	73.44819641113287	-896.426025390625	242.5339965820313	73.44819641113287	-896.426025390625	109.5299987792969	473.3529968261719	-958.60498046875	124.7670974731445	550.2476196289063	-548.1738891601563	526.3594970703125	446.0697937011719	-968.9680786132813	134.4217224121094	883.1596679687501	-1036.306762695313	134.322998046875	240.270004272461	-1283.150024414063	61.05258941650391	-82.04182434082024	-1057.271728515625	527.1222534179688	194.8597259521485	-1220.531005859375	109.5301055908203	473.3525390625001	-958.6005859375	144.6620025634766	283.4440002441407	-1350.670043945313	131.0233612060547	418.8782958984376	-1170.674194335938	367.7130737304688	266.3864746093751	-1320.934448242188	176.1128082275391	463.1480712890626	-1483.501708984375	125.0409927368164	172.779998779297	-1262.510009765625	125.0409927368164	172.779998779297	-1262.510009765625	125.0409927368164	172.779998779297	-1262.510009765625	125.0409927368164	172.779998779297	-1262.510009765625	225.1179962158203	1417.760009765625	-993.6599731445311	208.6349945068359	1468.671508789063	-524.7254028320311	-246.5547943115234	1420.00634765625	-1010.483276367187	221.0714416503906	948.5412597656251	-942.8598632812499	450.0650024414063	1115.869995117188	-1082.839965820313	434.8941040039063	1149.2119140625	-1352.856567382813	179.1680908203125	1088.9609375	-1070.9423828125	424.8560485839844	1384.970336914063	-1048.19482421875	478.8299865722656	875.1879882812501	-972.2340087890625	479.2454833984375	763.6341552734376	-1215.074951171875	213.154296875	848.7979125976564	-960.5657958984375	449.9784545898438	1116.591064453125	-1083.176635742188	470.0029907226563	809.0880126953126	-946.9650268554688	574.4608764648438	833.9041748046875	-845.55712890625	572.790283203125	759.5230712890626	-1040.714477539063	488.2836608886719	945.9760742187501	-999.2941894531249	-14.82520008087158	1118.760009765625	-1100.2900390625	5.349658012390137	1145.836059570313	-1365.549560546875	-278.0826721191406	1163.00732421875	-1115.796142578125	27.4977912902832	1381.080078125	-1070.295043945313	-61.54629898071289	890.5460205078126	-958.2930297851563	-71.79637908935547	748.2213134765626	-1190.397583007813	-329.7843627929688	935.6304931640626	-974.0926513671874	-14.8860969543457	1118.46044921875	-1100.10888671875	-74.40080261230469	821.85400390625	-922.3729858398438	-187.1567687988281	892.8519897460938	-826.9495239257813	41.47624969482422	857.7884521484375	-812.1845703125	-47.58926010131836	965.1309204101564	-997.2938842773436	217.8249969482422	1675.18994140625	-1057.569946289063	217.4473419189453	1688.721435546875	-1005.785400390625	271.2062683105469	1679.054809570313	-1058.190551757813	213.9288787841797	1726.831420898438	-1071.092529296875	288.1683044433594	1694.605590820313	-1011.080505371094	146.3807373046875	1686.50732421875	-1007.484130859375	308.8507385253906	1666.947387695313	-1107.552856445313	127.901741027832	1652.710571289063	-1104.182495117188	226.7455749511719	1503.960327148438	-1118.676391601563	229.356689453125	1145.121948242188	-1148.889526367188	224.9611968994141	1418.252807617188	-989.1892700195311	217.8514862060547	1255.135864257813	-902.4715576171874	110.9775161743164	1349.584228515625	-1179.04150390625	425.9283447265625	1437.579711914063	-1053.198974609375	483.9845275878906	1117.148559570313	-1068.120849609375	485.9181823730469	994.2418823242189	-983.7739868164061	465.7837829589844	878.6159057617189	-950.857177734375	498.3294372558594	875.1317138671876	-988.3189086914063	480.2593688964844	811.5253295898439	-937.0086669921875	25.92041969299316	1429.485961914063	-1076.34912109375	-49.71928024291992	1123.066162109375	-1088.772705078125	-70.80149078369141	1005.752990722656	-999.2370605468749	-43.15787506103516	899.5895385742189	-935.6141357421875	-85.99882507324219	885.9802856445314	-976.055908203125	-84.37674713134766	828.1349487304688	-913.9308471679688	330.1880187988281	967.5527343750001	-962.5036010742186	93.54294586181641	967.3314819335939	-977.0219726562499	262.3741760253906	980.3040771484376	-1147.277709960938	184.2282409667969	979.4799194335939	-1151.268432617188	365.7588500976563	660.0056762695314	-971.1201171875	307.5605773925781	764.702880859375	-897.5994873046875	292.4012145996094	664.036865234375	-885.4680786132813	327.5301208496094	484.0275268554688	-940.691162109375	319.1340942382813	299.6646728515626	-945.4173583984375	267.0836181640625	354.5469665527344	-892.0076904296875	261.3879699707031	251.0348358154297	-902.5231323242188	279.1981506347656	90.26173400878912	-969.6588134765625	236.2896575927734	74.69140625000006	-1039.446411132813	247.5506286621094	79.87100982666021	-868.8942260742188	224.8655548095703	57.03130722045903	-818.1795043945313	313.0791931152344	43.53680801391607	-855.7671508789063	30.83547592163086	704.2367553710939	-1001.286987304688	93.80197143554688	779.0617065429688	-926.16748046875	93.93202972412109	686.0576171875	-905.5194091796875	58.47399139404297	485.6304321289063	-966.7781372070313	65.01403045654297	340.2738037109376	-1125.635131835938	102.7494735717773	352.3426208496094	-1027.463256835938	113.2019805908203	279.2742004394532	-1144.2548828125	94.84040832519531	245.9319305419923	-1287.530029296875	145.2814178466797	284.8887634277344	-1348.068603515625	122.8077850341797	147.143783569336	-1242.166870117188	156.4320678710938	99.00633239746101	-1237.616943359375	69.98317718505859	118.9743194580079	-1276.994873046875	47.65166091918945	986.2843017578126	-1083.135864257813	390.234375	990.7781372070314	-1048.869018554688	418.2645263671875	1106.762084960938	-1075.899780273438	13.56031227111816	1102.042602539063	-1098.860717773438	305.3139953613281	895.8640136718751	-1026.180053710938	134.4219970703125	883.1589965820314	-1036.31005859375	275.75	485.4509887695313	-943.5800170898438	109.5299987792969	473.3529968261719	-958.60498046875	240.6670074462891	93.24810028076178	-960.0020141601563	134.322998046875	240.270004272461	-1283.150024414063	242.5339965820313	73.44819641113287	-896.426025390625	125.0409927368164	172.779998779297	-1262.510009765625	423.6640014648438	1397.68994140625	-1046.56005859375	28.89170074462891	1389.719970703125	-1069.31005859375	450.0650024414063	1115.869995117188	-1082.839965820313	-14.82520008087158	1118.760009765625	-1100.2900390625	470.0029907226563	809.0880126953126	-946.9650268554688	-74.40080261230469	821.85400390625	-922.3729858398438	215.2559967041016	999.3850097656251	-1038.880004882813	
33	0.32	220.3560028076172	891.7680053710939	-1019.010070800781	212.4406127929688	878.6433715820313	-848.0326538085938	391.4350280761719	902.8674926757814	-1010.237915039063	208.6301574707031	1062.568237304688	-1006.44189453125	276.0029907226563	485.5740051269532	-940.718017578125	219.3516845703125	562.617919921875	-532.0745239257813	690.7730712890625	466.4387207031251	-879.6096801757813	305.8529357910156	897.6816406250001	-1014.27685546875	240.6049957275391	93.51840209960943	-959.780029296875	287.1648254394531	70.32034301757815	-569.1171264648438	630.3519287109375	60.68262100219733	-1008.180541992188	276.00244140625	485.5734252929688	-940.718017578125	236.322998046875	71.73090362548834	-1038.319946289063	256.3158569335938	295.5000915527344	-1041.03759765625	459.9304809570313	51.64652252197272	-1047.041381835938	227.3938751220703	69.80219268798835	-1262.811157226563	242.5330047607422	73.47339630126959	-896.2830200195313	242.5330047607422	73.47339630126959	-896.2830200195313	242.5330047607422	73.47339630126959	-896.2830200195313	242.5330047607422	73.47339630126959	-896.2830200195313	109.8809967041016	478.5539855957032	-933.8389892578125	126.7699661254883	567.548095703125	-525.9254150390625	526.6417236328125	450.5369567871094	-944.9818115234375	134.8585662841797	885.8545532226564	-1023.733520507813	133.8840026855469	235.9510040283204	-1251.390014648438	61.46435546875	-79.55091857910151	-1015.830139160156	526.8900146484375	192.6304168701173	-1188.588012695313	109.8806762695313	478.5543518066407	-933.8338012695313	144.5749969482422	275.2820129394532	-1321.170043945313	132.6496276855469	420.3648681640626	-1148.729614257813	367.6021728515625	258.1257629394532	-1291.311889648438	176.8803558349609	447.2808532714845	-1463.647216796875	124.1689987182617	169.7519989013673	-1227.099975585938	124.1689987182617	169.7519989013673	-1227.099975585938	124.1689987182617	169.7519989013673	-1227.099975585938	124.1689987182617	169.7519989013673	-1227.099975585938	225.3029937744141	1419.800048828125	-980.8239746093749	206.5654602050781	1469.882446289063	-511.8848876953124	-246.2890472412109	1421.408447265625	-999.8392944335936	221.6872100830078	950.4895019531251	-930.8463745117186	451.7529907226563	1117.880004882813	-1065.670043945313	440.8140869140625	1148.655029296875	-1336.195556640625	180.7639770507813	1090.413940429688	-1057.8369140625	425.3695983886719	1387.229736328125	-1033.9619140625	479.2680053710938	879.1859741210939	-950.7650146484375	484.0045776367188	763.7313842773439	-1191.729736328125	213.5019836425781	852.2495117187501	-943.0828857421875	451.660888671875	1118.687255859375	-1066.06103515625	470.2760009765625	813.60498046875	-924.3590087890625	573.0672607421875	840.7821044921875	-821.8591918945313	574.66748046875	762.5856933593751	-1015.519897460938	488.9100646972656	949.5067749023439	-979.0795288085936	-13.40100002288818	1120.890014648438	-1090.630004882813	9.027840614318848	1150.143798828125	-1355.476928710938	-276.6131286621094	1164.679443359375	-1108.083618164063	28.06084060668945	1383.052978515625	-1058.161499023438	-60.89759826660156	890.7490234375001	-951.7620239257813	-68.60285949707031	751.2105102539064	-1185.64990234375	-329.0894775390625	935.3669433593751	-969.5458984374999	-13.48816680908203	1120.470947265625	-1090.376953125	-73.58730316162109	821.3599853515625	-916.9140014648438	-187.2383880615234	890.2928466796875	-821.0393676757813	41.49951171875	856.2345581054688	-805.56298828125	-47.15413284301758	965.9015502929689	-989.5037231445311	218.1519927978516	1677.199951171875	-1044.180053710938	217.6917419433594	1690.676025390625	-992.3817138671874	271.5326843261719	1681.085571289063	-1044.716674804688	214.2566528320313	1728.854370117188	-1057.6533203125	288.4189453125	1696.603881835938	-997.5117187499999	146.6270294189453	1688.433715820313	-994.2014770507811	309.2451782226563	1669.042846679688	-1094.040161132813	128.3181610107422	1654.718017578125	-1090.960571289063	227.3928833007813	1506.039672851563	-1105.4482421875	230.6424713134766	1147.392944335938	-1136.290893554688	225.1235198974609	1420.275024414063	-976.3527832031249	217.8541564941406	1257.10009765625	-889.9421997070311	112.1384735107422	1351.9501953125	-1166.526245117188	426.3939514160156	1439.904663085938	-1039.012817382813	485.5219116210938	1119.422729492188	-1050.631103515625	486.35986328125	997.9069824218751	-964.1691284179686	465.8987426757813	882.9447631835939	-929.698974609375	498.9961547851563	878.9001464843751	-966.4920043945313	480.3681945800781	816.2732543945313	-914.2948608398438	26.45206642150879	1431.525268554688	-1064.064819335938	-48.37733840942383	1125.017822265625	-1079.289672851563	-70.02104949951172	1006.525207519531	-991.3504638671874	-42.66272354125977	899.5337524414064	-928.8167724609375	-85.23723602294922	886.3730468750001	-969.77783203125	-83.64251708984375	827.4585571289063	-908.4320678710938	331.245849609375	969.2952880859376	-950.7827758789061	94.67826080322266	970.0358276367189	-964.8044433593749	262.9594116210938	982.6334838867189	-1135.222534179688	184.6460266113281	981.8106079101564	-1139.06396484375	366.1177978515625	660.5659179687501	-964.7135620117188	308.4625244140625	764.0919189453125	-888.9091186523438	293.1166687011719	662.890625	-878.97412109375	327.7422180175781	483.9538574218751	-937.6787719726563	319.2606201171875	299.7054138183594	-944.2429809570313	267.5606384277344	354.1625976562501	-889.895751953125	261.7785949707031	250.8417358398438	-901.3159790039063	279.0465087890625	90.45762634277349	-969.5256958007813	236.202880859375	74.96331024169928	-1039.472045898438	247.5491638183594	79.5905380249024	-868.7987060546875	224.9626007080078	56.60922622680669	-818.070556640625	313.1921081542969	43.50760269165044	-855.7283935546875	31.05412483215332	708.3420410156251	-983.1351928710938	94.72386169433594	784.8733520507813	-910.2108764648438	94.56313323974609	692.5913696289063	-886.890380859375	58.89753341674805	490.7179565429688	-942.3734130859375	64.85024261474609	340.7993469238282	-1096.530639648438	103.0489044189453	355.5958862304688	-999.0938720703125	113.1924285888672	279.3087158203126	-1113.552856445313	94.46088409423828	241.466293334961	-1255.739501953125	145.1180419921875	276.4465026855469	-1318.380859375	121.8725738525391	145.2174072265626	-1205.6181640625	154.949951171875	97.1864318847657	-1198.430419921875	68.52358245849609	115.9201278686524	-1238.4619140625	48.50240325927734	989.3755493164064	-1070.7568359375	390.9635314941406	992.7028198242189	-1037.093017578125	419.9021606445313	1108.766479492188	-1059.113891601563	14.99109172821045	1104.315307617188	-1089.18115234375	305.8529968261719	897.6820068359376	-1014.280090332031	134.8589935302734	885.8540039062501	-1023.730041503906	276.0029907226563	485.5740051269532	-940.718017578125	109.8809967041016	478.5539855957032	-933.8389892578125	240.6049957275391	93.51840209960943	-959.780029296875	133.8840026855469	235.9510040283204	-1251.390014648438	242.5330047607422	73.47339630126959	-896.2830200195313	124.1689987182617	169.7519989013673	-1227.099975585938	424.1199951171875	1400	-1032.4599609375	29.43540000915527	1391.75	-1057.089965820313	451.7529907226563	1117.880004882813	-1065.670043945313	-13.40100002288818	1120.890014648438	-1090.630004882813	470.2760009765625	813.60498046875	-924.3590087890625	-73.58730316162109	821.3599853515625	-916.9140014648438	215.9069976806641	1001.349914550781	-1025.75	
